<?xml version="1.0" encoding="utf-8"?>
<!-- Generator: Adobe Illustrator 25.2.0, SVG Export Plug-In . SVG Version: 6.00 Build 0)  -->
<svg version="1.1" id="Layer_7" xmlns="http://www.w3.org/2000/svg" xmlns:xlink="http://www.w3.org/1999/xlink" x="0px" y="0px"
	 viewBox="0 0 204.2 204.6" style="enable-background:new 0 0 204.2 204.6;" xml:space="preserve">
<style type="text/css">
	.st0{fill:#DD9F9F;}
	.st1{fill:#E8A4A0;}
	.st2{opacity:0.39;fill:none;stroke:#6D1F2C;stroke-width:0.25;stroke-miterlimit:10;enable-background:new    ;}
	.st3{fill:#EFAAA4;}
	.st4{fill:#3A322E;}
	.st5{display:none;fill:#983541;}
	.st6{display:none;fill:#913343;}
</style>
<g id="Layer_5">
	<g id="Layer_2_1_">
		<g id="Layer_4">
			<g>
				<path class="st0" d="M126.5,124.9c0.1,0,0.2,0,1.5,0.4c1.8,0.5,1.9,0.4,2.1,0.6c0.6,0.7,0.2,1.4,0.3,3.3c0,1.5,0.3,1.4,0.2,2.3
					c-0.1,1.9-1.8,4.1-1.8,4.1c-1.6,2-3.7,4.7-4.4,4.3c-0.7-0.3,0.7-2.5,1.2-6.7C126.2,128.8,125.4,125.2,126.5,124.9z"/>
			</g>
		</g>
	</g>
	<path class="st1" d="M120,154c0.7,0.3-0.3,2.3,0.2,5c0.6,2.7,2.1,3.2,2.8,5.5c0,0,0.2,0.5,0.2,1.1c1.3,11.2-4.6,16.8-4.6,16.8
		c-3.6,3.3-7.9,3.7-9.4,3.8c-9.6,0.9-16-6.4-17.2-8.2c-0.3-0.4-1.7-2.4-1.8-4.7c0-0.8,0.1-1.5,0.1-1.5c0.2-1.3,0.8-2,1.2-4.7
		c1.2-7.1-1.5-12.8-0.5-13.2c0.3-0.1,0.6,0.4,1.7,1.4c1.6,1.5,3.1,2.3,4.7,3.2c2.2,1.3,3.6,2.1,5.8,2.5c1,0.2,3.4,0.6,6.2-0.4
		c1.1-0.4,2.6-1.4,5.7-3.6c1.1-0.8,2.2-1.4,3.3-2.1C119.3,154.2,119.7,153.8,120,154z"/>
	<path class="st2" d="M97.6,146.8c0.1,0,0.3,0.1,0.6,0.1c1.5,0.3,2.5,0.5,2.7,0.6c1.1,0.2,2.2,0.2,4,0.2c1.6,0,3.2,0,5.3-0.5
		c0.9-0.2,1.6-0.4,2.1-0.6"/>
</g>
<g id="Layer_3">
	<path class="st3" d="M95.9,99.4c3.8-2,7.8-1.7,10.4-1.5c4.8,0.4,8.3,2.1,9.6,2.8c2.4,1.3,6.4,3.5,8.5,7.8c1.2,2.5,1.4,5,1.7,9.9
		c0.1,1.7,0,2,0.2,6.1c0.2,5.6,0.4,5.1,0.3,6.4c-0.1,2.2-0.4,2.6-1.9,9.5c-0.9,4.4-0.8,4.4-1.3,5.8c-1,3.4-1.7,5.6-3.5,7.8
		c-0.6,0.7-2.6,2-6.6,4.6c-2.4,1.5-3.6,2.3-5.5,2.6c-0.4,0.1-1.8,0.4-3.7,0.2c-2.5-0.3-4.2-1.2-6.4-2.4c-2.8-1.5-4.5-2.4-6.2-4.4
		c-1.7-2-2.5-3.9-3.2-5.7c-1.5-3.9-0.8-4.9-2.4-9.1c-1-2.5-1.4-2.6-1.7-4.2c-0.5-3.2,0.8-5.7,1.4-7c3.4-7.6-1-10.9,2.3-19.6
		C89,107.1,90.9,102,95.9,99.4z"/>
	<path class="st4" d="M100.7,98.1c0,0.1,0.4,0,2.1,0.1c0.3,0,1.5,0.1,2.3,0.2c1.5,0.3,2,0.8,4.9,2.5c1.6,0.8,1.3,0.6,2.6,1.3
		c1.7,0.9,2.7,1.7,4.4,2.9c4.9,3.4,4.9,3,5.6,3.9c1.3,1.6,1.7,3.1,2.3,5.6c1,3.8,1.1,7.4,1.1,7.4c0.1,2.6-0.2,4.3,0.9,5.1
		c0.8,0.6,1.4,0.2,2.2,0.9c1.1,1,1.1,2.6,1.1,3.2c0,1.9-0.9,3.4-1.5,4.3c-1.3,2.1-2.2,2.1-3.4,3.8c-0.2,0.3-0.3,0.6-0.6,1.2
		c-1.1,2.4-1.6,4.7-1.6,4.7c-0.3,1.5-0.9,3.7-2.3,6.7c-0.6,1.1-0.9,1.5-1.2,2.4c-0.6,2.1-0.1,3.9,0.2,5c0.3,1.2,1,3.6,3.1,5.1
		c1,0.8,2.1,1.1,3.1,1.4c1.5,0.5,2.6,0.6,3.5,0.7c0,0,4.6,0.4,9.2,1.3c1.1,0.2,2.4,0.5,4,1c0.8,0.2,1.9,0.6,3.2,1.3
		c2.1,1.1,2.4,1.9,4.3,3.2c1.3,0.9,4.6,2.8,5.4,2.1c0.2-0.2,0.7-1.1-3.6-8c-6-9.5-8-9.4-9.1-13.5c-1.4-5.7,2.5-6.9,1.1-13.4
		c-0.3-1.4-0.7-2.3-0.9-2.7c-2.9-6.5-4.3-9.7-4.8-10.6c-2.6-5.3-1-5.4-4.2-14.8c-1.9-5.7-3-8.9-5.8-12.6c-2-2.6-4.2-5.4-7.9-6.8
		C111.5,89.6,100.5,97.5,100.7,98.1z"/>
	<path class="st4" d="M108.2,96.3c0.1,0.5,2.2-0.1,5.4,0.5c2.9,0.6,4,1.6,5.4,1c0.9-0.4,1.7-1.4,1.7-2.4c0-0.6-0.1-1.7-3-3.9
		c-1.7-1.3-3.5-2.7-6.7-3.7c-4.6-1.4-8.5-0.9-11.3-0.4c-6.7,1-11.5,4-14.1,5.9c-3.4,2.5-5.5,5-6.1,5.8c-1,1.3-3.1,3.9-4.4,7.7
		c-1.4,4-2.3,9.7-3.2,13.1c-0.1,0.4-0.3,1.1-0.8,1.9c-0.5,0.9-1,1.6-1.6,2.3c-0.8,1-1.6,1.9-2.3,3c-1.6,2.3-3.9,5.7-5.5,10.5
		c-1.5,4.7-2.1,8.7-2.3,11c-0.4,3.6-0.3,5.9-1.9,8.9c-0.1,0.1-1.2,2.6-1.2,2.6s-1.4,1.5-2.3,2.9c-0.9,1.3-2.3,3.2-2.4,5.7
		c0,1.1,0.2,1.2,0,1.9c-0.6,1.7-2.7,2.1-4.3,3c-3.3,1.8-5.7,6.4-4.7,8.3c1.3,2.4,6.8-0.3,15.6,1.1c6.9,1.1,7.6,2.9,13.2,2.9
		c2.2,0,7.1-0.1,12-3.2c1.4-0.9,6.3-3.9,8.3-9.6c0.1-0.2,0.1-0.4,0.2-0.6c1.7-5.9,0.6-12.4-0.9-18.1c-0.7-2.6-1.9-5.8-4.3-12.2
		c-2.1-5.6-2.8-7.2-2.3-9.5c1-4.3,4.9-4,7.9-8.2c4.7-6.5-1.6-12.6,2.6-25.2c0.9-2.6,2.3-5.8,5.4-8.3c1.2-0.9,4.4-3.4,7.8-2.4
		c2.2,0.6,4.4,2.7,4.2,4.4C112,94.9,108.1,95.6,108.2,96.3z"/>
	<path class="st4" d="M101.7,103.2c0.3-0.4,0.8-1.1,1.7-1.7c2.7-2,6.1-1.7,8.1-1.3c1.3-0.6,2.4-1,3.2-1.2c2.4-0.6,4.2-0.6,7.2-1.5
		c1.3-0.4,1.6-0.6,1.7-0.9c0.7-1.4-2.5-4.3-4.4-5.7c-0.8-0.6-5.4-3.8-12.8-4.2c-1.8-0.1-13.4-0.4-21.8,8.1
		c-4.7,4.8-9.3,13.2-6.6,19.5c0.7,1.7,1.2,1.4,2.6,4.1c3.6,6.8,2.2,11.5,4.3,12.3c2.1,0.8,6.1-3.2,8.3-6.3
		C98.8,116.3,95.8,110.2,101.7,103.2z"/>
	<path class="st5" d="M97.2,147.3c0-0.1,0.4-0.1,0.6-0.1c1.4-0.1,1.9-0.9,4-1.4c0.9-0.2,1.2-0.3,1.6-0.2c0.5,0.1,0.6,0.3,1.1,0.3
		c0.7,0.1,1-0.3,1.6-0.5c1-0.3,1.6,0.5,3.3,1.1c1.9,0.7,3.2,0.3,3.2,0.6c0,0.3-2.5,0.9-4.7,1.2c-0.5,0.1-1.4,0.1-3.3,0.1
		c-0.4,0-0.8,0-1.3,0c-0.3,0-0.6,0-0.8-0.1c-0.6-0.1-1.3-0.2-1.5-0.2c-1-0.2-1.6-0.3-2.8-0.6C97.6,147.4,97.1,147.3,97.2,147.3z"/>
	<path class="st6" d="M97.2,147.3c-0.2,0.3,1.1,1.8,2.6,2.8c0.6,0.4,2.6,1.6,5.2,1.5c1.7-0.1,2.8-0.6,3.5-1c2.5-1.2,4.3-3.2,4.1-3.6
		c-0.2-0.2-1,0.4-3.1,0.9c-1.5,0.3-2.8,0.3-4.6,0.4c-1,0-1.5,0-2,0c-1.8-0.1-3.4-0.5-3.7-0.6C97.7,147.3,97.3,147.1,97.2,147.3z"/>
</g>
</svg>
